<svg width="146" height="26" viewBox="0 0 146 26" fill="none" xmlns="http://www.w3.org/2000/svg">
  <path
    d="M4.9375 25H0.140625V0.9375H4.9375V25ZM13.5625 25H8.76562V0.9375H13.5625V25ZM22.1875 25H17.3906V0.9375H22.1875V25ZM30.8125 25H26.0156V0.9375H30.8125V25ZM46.1719 25.4688C44.3906 25.4688 42.7448 25.1667 41.2344 24.5625C39.7344 23.9479 38.4271 23.0938 37.3125 22C36.2083 20.8958 35.349 19.6042 34.7344 18.125C34.1302 16.6458 33.8281 15.0312 33.8281 13.2812C33.8281 11.5312 34.1302 9.91667 34.7344 8.4375C35.349 6.94792 36.2083 5.65625 37.3125 4.5625C38.4271 3.46875 39.7344 2.61979 41.2344 2.01562C42.7448 1.40104 44.3906 1.09375 46.1719 1.09375C47.9531 1.09375 49.5938 1.40104 51.0938 2.01562C52.5938 2.61979 53.8906 3.46875 54.9844 4.5625C56.0885 5.65625 56.9479 6.94792 57.5625 8.4375C58.1771 9.91667 58.4844 11.5312 58.4844 13.2812C58.4844 15.0312 58.1771 16.6458 57.5625 18.125C56.9479 19.6042 56.0885 20.8958 54.9844 22C53.8906 23.0938 52.5938 23.9479 51.0938 24.5625C49.5938 25.1667 47.9531 25.4688 46.1719 25.4688ZM46.1719 21.2656C47.224 21.2656 48.1979 21.0625 49.0938 20.6562C50 20.25 50.7865 19.6875 51.4531 18.9688C52.1198 18.2396 52.6354 17.3958 53 16.4375C53.375 15.4688 53.5625 14.4167 53.5625 13.2812C53.5625 12.1458 53.375 11.0938 53 10.125C52.6354 9.15625 52.1198 8.3125 51.4531 7.59375C50.7865 6.86458 50 6.30208 49.0938 5.90625C48.1979 5.5 47.224 5.29688 46.1719 5.29688C45.1094 5.29688 44.125 5.5 43.2188 5.90625C42.3229 6.30208 41.5365 6.86458 40.8594 7.59375C40.1927 8.3125 39.6719 9.15625 39.2969 10.125C38.9323 11.0938 38.75 12.1458 38.75 13.2812C38.75 14.4167 38.9323 15.4688 39.2969 16.4375C39.6719 17.4062 40.1927 18.2552 40.8594 18.9844C41.5365 19.7031 42.3229 20.2656 43.2188 20.6719C44.125 21.0677 45.1094 21.2656 46.1719 21.2656ZM73.0156 25.4688C71.2344 25.4688 69.5885 25.1667 68.0781 24.5625C66.5781 23.9479 65.2708 23.0938 64.1562 22C63.0521 20.8958 62.1927 19.6042 61.5781 18.125C60.974 16.6458 60.6719 15.0312 60.6719 13.2812C60.6719 11.5312 60.974 9.91667 61.5781 8.4375C62.1927 6.94792 63.0521 5.65625 64.1562 4.5625C65.2708 3.46875 66.5781 2.61979 68.0781 2.01562C69.5885 1.40104 71.2344 1.09375 73.0156 1.09375C74.7969 1.09375 76.4375 1.40104 77.9375 2.01562C79.4375 2.61979 80.7344 3.46875 81.8281 4.5625C82.9323 5.65625 83.7917 6.94792 84.4062 8.4375C85.0208 9.91667 85.3281 11.5312 85.3281 13.2812C85.3281 15.0312 85.0208 16.6458 84.4062 18.125C83.7917 19.6042 82.9323 20.8958 81.8281 22C80.7344 23.0938 79.4375 23.9479 77.9375 24.5625C76.4375 25.1667 74.7969 25.4688 73.0156 25.4688ZM73.0156 21.2656C74.0677 21.2656 75.0417 21.0625 75.9375 20.6562C76.8438 20.25 77.6302 19.6875 78.2969 18.9688C78.9635 18.2396 79.4792 17.3958 79.8438 16.4375C80.2188 15.4688 80.4062 14.4167 80.4062 13.2812C80.4062 12.1458 80.2188 11.0938 79.8438 10.125C79.4792 9.15625 78.9635 8.3125 78.2969 7.59375C77.6302 6.86458 76.8438 6.30208 75.9375 5.90625C75.0417 5.5 74.0677 5.29688 73.0156 5.29688C71.9531 5.29688 70.9688 5.5 70.0625 5.90625C69.1667 6.30208 68.3802 6.86458 67.7031 7.59375C67.0365 8.3125 66.5156 9.15625 66.1406 10.125C65.776 11.0938 65.5938 12.1458 65.5938 13.2812C65.5938 14.4167 65.776 15.4688 66.1406 16.4375C66.5156 17.4062 67.0365 18.2552 67.7031 18.9844C68.3802 19.7031 69.1667 20.2656 70.0625 20.6719C70.9688 21.0677 71.9531 21.2656 73.0156 21.2656ZM93.125 25H88.3281V0.9375H93.125V25ZM101.75 25H96.9531V0.9375H101.75V25ZM117.109 25.4688C115.328 25.4688 113.682 25.1667 112.172 24.5625C110.672 23.9479 109.365 23.0938 108.25 22C107.146 20.8958 106.286 19.6042 105.672 18.125C105.068 16.6458 104.766 15.0312 104.766 13.2812C104.766 11.5312 105.068 9.91667 105.672 8.4375C106.286 6.94792 107.146 5.65625 108.25 4.5625C109.365 3.46875 110.672 2.61979 112.172 2.01562C113.682 1.40104 115.328 1.09375 117.109 1.09375C118.891 1.09375 120.531 1.40104 122.031 2.01562C123.531 2.61979 124.828 3.46875 125.922 4.5625C127.026 5.65625 127.885 6.94792 128.5 8.4375C129.115 9.91667 129.422 11.5312 129.422 13.2812C129.422 15.0312 129.115 16.6458 128.5 18.125C127.885 19.6042 127.026 20.8958 125.922 22C124.828 23.0938 123.531 23.9479 122.031 24.5625C120.531 25.1667 118.891 25.4688 117.109 25.4688ZM117.109 21.2656C118.161 21.2656 119.135 21.0625 120.031 20.6562C120.938 20.25 121.724 19.6875 122.391 18.9688C123.057 18.2396 123.573 17.3958 123.938 16.4375C124.312 15.4688 124.5 14.4167 124.5 13.2812C124.5 12.1458 124.312 11.0938 123.938 10.125C123.573 9.15625 123.057 8.3125 122.391 7.59375C121.724 6.86458 120.938 6.30208 120.031 5.90625C119.135 5.5 118.161 5.29688 117.109 5.29688C116.047 5.29688 115.062 5.5 114.156 5.90625C113.26 6.30208 112.474 6.86458 111.797 7.59375C111.13 8.3125 110.609 9.15625 110.234 10.125C109.87 11.0938 109.688 12.1458 109.688 13.2812C109.688 14.4167 109.87 15.4688 110.234 16.4375C110.609 17.4062 111.13 18.2552 111.797 18.9844C112.474 19.7031 113.26 20.2656 114.156 20.6719C115.062 21.0677 116.047 21.2656 117.109 21.2656ZM137.219 25H132.422V0.9375H137.219V25ZM145.844 25H141.047V0.9375H145.844V25Z"
    fill="#F3F5F7" />
</svg>
