<svg width="125" height="37" viewBox="0 0 125 37" fill="none" xmlns="http://www.w3.org/2000/svg">
<path d="M80.418 26.1172C80.1836 26.1172 79.9922 26.0449 79.8438 25.9004C79.6992 25.752 79.627 25.5586 79.627 25.3203C79.627 25.082 79.6992 24.8906 79.8438 24.7461C79.9922 24.5977 80.1836 24.5234 80.418 24.5234C80.6562 24.5234 80.8496 24.5977 80.998 24.7461C81.1465 24.8906 81.2207 25.082 81.2207 25.3203C81.2207 25.5586 81.1465 25.752 80.998 25.9004C80.8496 26.0449 80.6562 26.1172 80.418 26.1172ZM87.5781 25.0684C87.293 25.3965 86.9434 25.6543 86.5293 25.8418C86.1152 26.0254 85.6602 26.1172 85.1641 26.1172C84.5625 26.1172 84.0234 25.9863 83.5469 25.7246C83.0742 25.459 82.7012 25.0957 82.4277 24.6348C82.1582 24.1738 82.0234 23.6523 82.0234 23.0703C82.0234 22.4844 82.1582 21.9629 82.4277 21.5059C82.7012 21.0449 83.0742 20.6836 83.5469 20.4219C84.0234 20.1562 84.5625 20.0234 85.1641 20.0234C85.6562 20.0234 86.1094 20.1152 86.5234 20.2988C86.9375 20.4824 87.2871 20.7363 87.5723 21.0605L86.582 22.0977C86.4297 21.9219 86.2363 21.7852 86.002 21.6875C85.7715 21.5859 85.5293 21.5352 85.2754 21.5352C84.9824 21.5352 84.7207 21.6016 84.4902 21.7344C84.2598 21.8633 84.0781 22.043 83.9453 22.2734C83.8125 22.5 83.7461 22.7617 83.7461 23.0586C83.7461 23.3594 83.8125 23.627 83.9453 23.8613C84.0781 24.0957 84.2598 24.2793 84.4902 24.4121C84.7207 24.541 84.9824 24.6055 85.2754 24.6055C85.5293 24.6055 85.7734 24.5566 86.0078 24.459C86.2422 24.3574 86.4336 24.2188 86.582 24.043L87.5781 25.0684ZM91.3926 26.1172C90.791 26.1172 90.252 25.9863 89.7754 25.7246C89.2988 25.459 88.9238 25.0977 88.6504 24.6406C88.3809 24.1797 88.2461 23.6562 88.2461 23.0703C88.2461 22.4883 88.3809 21.9688 88.6504 21.5117C88.9238 21.0508 89.2988 20.6875 89.7754 20.4219C90.252 20.1562 90.791 20.0234 91.3926 20.0234C91.9941 20.0234 92.5293 20.1562 92.998 20.4219C93.4707 20.6875 93.8418 21.0508 94.1113 21.5117C94.3848 21.9688 94.5215 22.4883 94.5215 23.0703C94.5215 23.6562 94.3848 24.1797 94.1113 24.6406C93.8418 25.0977 93.4707 25.459 92.998 25.7246C92.5293 25.9863 91.9941 26.1172 91.3926 26.1172ZM91.3867 24.6113C91.6562 24.6113 91.8965 24.5449 92.1074 24.4121C92.3223 24.2754 92.4902 24.0918 92.6113 23.8613C92.7363 23.627 92.7988 23.3594 92.7988 23.0586C92.7988 22.7695 92.7363 22.5098 92.6113 22.2793C92.4902 22.0488 92.3223 21.8672 92.1074 21.7344C91.8965 21.5977 91.6562 21.5293 91.3867 21.5293C91.1133 21.5293 90.8691 21.5977 90.6543 21.7344C90.4434 21.8672 90.2754 22.0488 90.1504 22.2793C90.0293 22.5098 89.9688 22.7695 89.9688 23.0586C89.9688 23.3594 90.0293 23.627 90.1504 23.8613C90.2754 24.0918 90.4434 24.2754 90.6543 24.4121C90.8691 24.5449 91.1133 24.6113 91.3867 24.6113ZM105.127 26H103.445V23.0586C103.445 22.5703 103.35 22.1934 103.158 21.9277C102.967 21.6621 102.695 21.5293 102.344 21.5293C101.984 21.5293 101.703 21.6641 101.5 21.9336C101.301 22.2031 101.201 22.5781 101.201 23.0586V26H99.5195V23.0586C99.5195 22.5703 99.4238 22.1934 99.2324 21.9277C99.041 21.6621 98.7676 21.5293 98.4121 21.5293C98.0566 21.5293 97.7773 21.6641 97.5742 21.9336C97.375 22.2031 97.2754 22.5781 97.2754 23.0586V26H95.5938V20.1406H96.9355L96.9941 21.1074C97.1895 20.752 97.4512 20.4824 97.7793 20.2988C98.1113 20.1152 98.4961 20.0234 98.9336 20.0234C99.3906 20.0234 99.7852 20.1191 100.117 20.3105C100.449 20.502 100.705 20.7773 100.885 21.1367C101.084 20.7734 101.348 20.498 101.676 20.3105C102.008 20.1191 102.4 20.0234 102.854 20.0234C103.568 20.0234 104.125 20.252 104.523 20.709C104.926 21.1621 105.127 21.7969 105.127 22.6133V26ZM107.148 26.1172C106.914 26.1172 106.723 26.0449 106.574 25.9004C106.43 25.752 106.357 25.5586 106.357 25.3203C106.357 25.082 106.43 24.8906 106.574 24.7461C106.723 24.5977 106.914 24.5234 107.148 24.5234C107.387 24.5234 107.58 24.5977 107.729 24.7461C107.877 24.8906 107.951 25.082 107.951 25.3203C107.951 25.5586 107.877 25.752 107.729 25.9004C107.58 26.0449 107.387 26.1172 107.148 26.1172ZM110.77 26H109.293V17.2109H110.975V20.8086C111.221 20.5625 111.506 20.3711 111.83 20.2344C112.158 20.0938 112.514 20.0234 112.896 20.0234C113.436 20.0234 113.914 20.1562 114.332 20.4219C114.75 20.6836 115.08 21.0449 115.322 21.5059C115.564 21.9629 115.686 22.4844 115.686 23.0703C115.686 23.6523 115.564 24.1738 115.322 24.6348C115.08 25.0957 114.75 25.459 114.332 25.7246C113.914 25.9863 113.436 26.1172 112.896 26.1172C112.482 26.1172 112.1 26.0371 111.748 25.877C111.4 25.7129 111.102 25.4883 110.852 25.2031L110.77 26ZM112.469 24.6113C112.754 24.6113 113.008 24.5449 113.23 24.4121C113.457 24.2793 113.635 24.0957 113.764 23.8613C113.896 23.627 113.963 23.3613 113.963 23.0645C113.963 22.7715 113.896 22.5098 113.764 22.2793C113.635 22.0449 113.457 21.8613 113.23 21.7285C113.008 21.5957 112.754 21.5293 112.469 21.5293C112.199 21.5293 111.953 21.5898 111.73 21.7109C111.512 21.832 111.336 21.998 111.203 22.209C111.07 22.4199 110.994 22.6621 110.975 22.9355V23.1934C110.994 23.4668 111.07 23.7109 111.203 23.9258C111.336 24.1367 111.512 24.3047 111.73 24.4297C111.949 24.5508 112.195 24.6113 112.469 24.6113ZM118.439 26H116.758V20.1406H118.223L118.281 21.1543C118.477 20.7988 118.742 20.5215 119.078 20.3223C119.414 20.123 119.799 20.0234 120.232 20.0234C120.357 20.0234 120.482 20.0332 120.607 20.0527C120.736 20.0684 120.867 20.0938 121 20.1289L120.789 21.6406C120.531 21.5664 120.287 21.5293 120.057 21.5293C119.732 21.5293 119.447 21.6035 119.201 21.752C118.959 21.8965 118.771 22.0996 118.639 22.3613C118.506 22.6191 118.439 22.9219 118.439 23.2695V26Z" fill="white"/>
<path d="M48.8438 26H45.5918L50.543 13.9785H44.4102V11.3516H54.0781V13.3145L48.8438 26ZM55.6797 26V11.3516H61.0996C62.6751 11.3516 63.8958 11.6868 64.7617 12.3574C65.6341 13.0215 66.0703 13.9557 66.0703 15.1602C66.0703 15.8958 65.8978 16.5469 65.5527 17.1133C65.2077 17.6732 64.7422 18.0996 64.1562 18.3926C64.9896 18.64 65.6374 19.0664 66.0996 19.6719C66.5684 20.2708 66.8027 21.0065 66.8027 21.8789C66.8027 22.7122 66.5977 23.4382 66.1875 24.0566C65.7839 24.6686 65.2109 25.1471 64.4688 25.4922C63.7331 25.8307 62.8672 26 61.8711 26H55.6797ZM58.6875 17.4844H60.9336C61.6042 17.4844 62.1348 17.3249 62.5254 17.0059C62.916 16.6868 63.1113 16.2539 63.1113 15.707C63.1113 15.1732 62.9128 14.7533 62.5156 14.4473C62.125 14.1348 61.5814 13.9785 60.8848 13.9785H58.6875V17.4844ZM58.6875 23.373H61.1191C61.653 23.373 62.1152 23.2982 62.5059 23.1484C62.8965 22.9922 63.196 22.7741 63.4043 22.4941C63.6191 22.2077 63.7266 21.8757 63.7266 21.498C63.7266 21.1204 63.6289 20.7982 63.4336 20.5312C63.2448 20.2643 62.9681 20.0625 62.6035 19.9258C62.2389 19.7826 61.806 19.7109 61.3047 19.7109H58.6875V23.373ZM68.2969 24.7305L69.4492 22.5039C69.9701 22.888 70.4811 23.1777 70.9824 23.373C71.4902 23.5684 71.9818 23.666 72.457 23.666C72.9193 23.666 73.3262 23.5781 73.6777 23.4023C74.0358 23.2266 74.3158 22.9824 74.5176 22.6699C74.7194 22.3574 74.8203 21.9993 74.8203 21.5957C74.8203 20.9251 74.5436 20.4043 73.9902 20.0332C73.4368 19.6556 72.6654 19.4668 71.6758 19.4668H71.0508V17.377H71.6758C72.2096 17.377 72.6849 17.2923 73.1016 17.123C73.5247 16.9473 73.8568 16.7096 74.0977 16.4102C74.3385 16.1042 74.459 15.7559 74.459 15.3652C74.459 15.0397 74.3711 14.75 74.1953 14.4961C74.026 14.2422 73.7917 14.0436 73.4922 13.9004C73.1992 13.7572 72.8607 13.6855 72.4766 13.6855C72.0794 13.6855 71.6628 13.7702 71.2266 13.9395C70.7969 14.1087 70.3444 14.3659 69.8691 14.7109L68.5508 12.6211C69.1237 12.1198 69.7715 11.7357 70.4941 11.4688C71.2168 11.1953 71.972 11.0586 72.7598 11.0586C73.6387 11.0586 74.4167 11.2181 75.0938 11.5371C75.7773 11.8561 76.3145 12.2956 76.7051 12.8555C77.1022 13.4154 77.3008 14.0599 77.3008 14.7891C77.3008 15.5833 77.0697 16.293 76.6074 16.918C76.1452 17.543 75.5365 18.0215 74.7812 18.3535C75.7643 18.627 76.5358 19.0827 77.0957 19.7207C77.6621 20.3587 77.9453 21.1335 77.9453 22.0449C77.9453 22.8587 77.7174 23.5879 77.2617 24.2324C76.8125 24.8704 76.1973 25.375 75.416 25.7461C74.6348 26.1107 73.7461 26.293 72.75 26.293C71.9297 26.293 71.1387 26.1595 70.377 25.8926C69.6152 25.6191 68.9219 25.2318 68.2969 24.7305Z" fill="white"/>
<path d="M17 23.125H20.0909L26.2727 10.7917V7.70837H17V10.7917H23.1818L17 23.125ZM12.3636 27.75C11.5136 27.75 10.7862 27.4484 10.1815 26.8451C9.57564 26.2408 9.27273 25.5146 9.27273 24.6667V6.16671C9.27273 5.31879 9.57564 4.59267 10.1815 3.98833C10.7862 3.38503 11.5136 3.08337 12.3636 3.08337H30.9091C31.7591 3.08337 32.487 3.38503 33.0928 3.98833C33.6976 4.59267 34 5.31879 34 6.16671V24.6667C34 25.5146 33.6976 26.2408 33.0928 26.8451C32.487 27.4484 31.7591 27.75 30.9091 27.75H12.3636ZM6.18182 33.9167C5.33182 33.9167 4.60443 33.6151 3.99964 33.0118C3.39382 32.4074 3.09091 31.6813 3.09091 30.8334V9.25004H6.18182V30.8334H27.8182V33.9167H6.18182Z" fill="#F8F8F8"/>
</svg>
