<svg width="361" height="66" viewBox="0 0 361 66" fill="none" xmlns="http://www.w3.org/2000/svg">
<path d="M18.25 58.0312C14.0417 58.0312 10.8542 57.2083 8.6875 55.5625C6.52083 53.9375 5.4375 51.5312 5.4375 48.3438V38C5.4375 36.2083 4.9375 34.6667 3.9375 33.375C2.95833 32.0625 1.75 31.3542 0.3125 31.25V27.6562C1.75 27.5521 2.95833 26.8542 3.9375 25.5625C4.9375 24.25 5.4375 22.6979 5.4375 20.9062V10.5625C5.4375 7.35417 6.52083 4.9375 8.6875 3.3125C10.8542 1.6875 14.0417 0.875 18.25 0.875V8C16.5 8 15.2292 8.35417 14.4375 9.0625C13.6458 9.75 13.25 10.8958 13.25 12.5V21.1562C13.25 23.0312 12.7917 24.6979 11.875 26.1562C10.9583 27.6146 9.70833 28.7083 8.125 29.4375C9.70833 30.1667 10.9583 31.2708 11.875 32.75C12.7917 34.2292 13.25 35.9062 13.25 37.7812V46.4062C13.25 47.9896 13.6458 49.1354 14.4375 49.8438C15.2292 50.5521 16.5 50.9062 18.25 50.9062V58.0312ZM342.875 58.0312V50.9062C344.646 50.9062 345.917 50.5417 346.688 49.8125C347.479 49.1042 347.875 47.9688 347.875 46.4062V37.7812C347.875 35.9062 348.333 34.2292 349.25 32.75C350.167 31.2708 351.417 30.1667 353 29.4375C351.417 28.7083 350.167 27.6146 349.25 26.1562C348.333 24.6771 347.875 23.0104 347.875 21.1562V12.5C347.875 10.8958 347.479 9.73958 346.688 9.03125C345.917 8.32292 344.646 7.96875 342.875 7.96875V0.875C347.104 0.875 350.292 1.6875 352.438 3.3125C354.604 4.9375 355.688 7.35417 355.688 10.5625V20.9062C355.688 22.6979 356.177 24.25 357.156 25.5625C358.156 26.8542 359.375 27.5521 360.812 27.6562V31.25C359.375 31.3542 358.156 32.0625 357.156 33.375C356.177 34.6667 355.688 36.2083 355.688 38V48.3438C355.688 51.5312 354.604 53.9375 352.438 55.5625C350.292 57.2083 347.104 58.0312 342.875 58.0312Z" fill="#32BBF6"/>
<path d="M21.1875 46.3125L23.1562 38.6875C23.7812 39.375 24.6146 40.0104 25.6562 40.5938C26.7188 41.1771 27.8542 41.6458 29.0625 42C30.2917 42.3333 31.4479 42.5 32.5312 42.5C33.8229 42.5 34.8333 42.2604 35.5625 41.7812C36.2917 41.2812 36.6562 40.6146 36.6562 39.7812C36.6562 39.0938 36.4062 38.5208 35.9062 38.0625C35.4271 37.5833 34.7708 37.1667 33.9375 36.8125C33.125 36.4375 32.2188 36.0729 31.2188 35.7188C29.8646 35.1979 28.4688 34.5938 27.0312 33.9062C25.6146 33.2188 24.4167 32.2812 23.4375 31.0938C22.4583 29.9062 21.9688 28.3333 21.9688 26.375C21.9688 24.5 22.4583 22.875 23.4375 21.5C24.4167 20.1042 25.8021 19.0312 27.5938 18.2812C29.3854 17.5104 31.4688 17.125 33.8438 17.125C37.6979 17.125 41.5417 18.0938 45.375 20.0312L42.8438 27.125C42.1771 26.6042 41.3438 26.125 40.3438 25.6875C39.3438 25.2292 38.3125 24.8646 37.25 24.5938C36.2083 24.3229 35.2708 24.1875 34.4375 24.1875C33.4167 24.1875 32.6146 24.3958 32.0312 24.8125C31.4688 25.2292 31.1875 25.8021 31.1875 26.5312C31.1875 27.0729 31.3854 27.5625 31.7812 28C32.1771 28.4167 32.7604 28.8229 33.5312 29.2188C34.3229 29.5938 35.2917 30 36.4375 30.4375C37.8542 30.9583 39.2812 31.5833 40.7188 32.3125C42.1771 33.0208 43.3958 33.9792 44.375 35.1875C45.375 36.375 45.875 37.9583 45.875 39.9375C45.875 41.875 45.3438 43.5729 44.2812 45.0312C43.2396 46.4896 41.7604 47.625 39.8438 48.4375C37.9479 49.2292 35.7188 49.625 33.1562 49.625C28.8854 49.625 24.8958 48.5208 21.1875 46.3125ZM80.0938 45.5C76.2188 48.25 71.9792 49.625 67.375 49.625C63.9583 49.625 60.8854 48.8958 58.1562 47.4375C55.4479 45.9583 53.3021 43.9583 51.7188 41.4375C50.1562 38.9167 49.375 36.0729 49.375 32.9062C49.375 29.8854 50.0833 27.1875 51.5 24.8125C52.9375 22.4375 54.8854 20.5625 57.3438 19.1875C59.8021 17.8125 62.5938 17.125 65.7188 17.125C68.9479 17.125 71.7917 17.8854 74.25 19.4062C76.7083 20.9062 78.625 23.0104 80 25.7188C81.375 28.4062 82.0625 31.5208 82.0625 35.0625V36.0625H59.0312C59.4062 37.2917 60.0208 38.375 60.875 39.3125C61.7292 40.2292 62.7917 40.9583 64.0625 41.5C65.3333 42.0417 66.7917 42.3125 68.4375 42.3125C71.625 42.3125 74.5938 41.2812 77.3438 39.2188L80.0938 45.5ZM58.625 31.5H73.7812C73.6146 30.1458 73.1875 28.9583 72.5 27.9375C71.8333 26.8958 70.9479 26.0833 69.8438 25.5C68.7604 24.9167 67.5417 24.625 66.1875 24.625C64.8125 24.625 63.5833 24.9271 62.5 25.5312C61.4375 26.1354 60.5729 26.9479 59.9062 27.9688C59.2396 28.9896 58.8125 30.1667 58.625 31.5ZM118.5 17.75L105.75 49H97.0625L84.3125 17.75H93.9062L101.438 39.9375L108.969 17.75H118.5ZM151.469 45.5C147.594 48.25 143.354 49.625 138.75 49.625C135.333 49.625 132.26 48.8958 129.531 47.4375C126.823 45.9583 124.677 43.9583 123.094 41.4375C121.531 38.9167 120.75 36.0729 120.75 32.9062C120.75 29.8854 121.458 27.1875 122.875 24.8125C124.312 22.4375 126.26 20.5625 128.719 19.1875C131.177 17.8125 133.969 17.125 137.094 17.125C140.323 17.125 143.167 17.8854 145.625 19.4062C148.083 20.9062 150 23.0104 151.375 25.7188C152.75 28.4062 153.438 31.5208 153.438 35.0625V36.0625H130.406C130.781 37.2917 131.396 38.375 132.25 39.3125C133.104 40.2292 134.167 40.9583 135.438 41.5C136.708 42.0417 138.167 42.3125 139.812 42.3125C143 42.3125 145.969 41.2812 148.719 39.2188L151.469 45.5ZM130 31.5H145.156C144.99 30.1458 144.562 28.9583 143.875 27.9375C143.208 26.8958 142.323 26.0833 141.219 25.5C140.135 24.9167 138.917 24.625 137.562 24.625C136.188 24.625 134.958 24.9271 133.875 25.5312C132.812 26.1354 131.948 26.9479 131.281 27.9688C130.615 28.9896 130.188 30.1667 130 31.5ZM190.312 49H181.344V33C181.344 30.5625 180.76 28.6562 179.594 27.2812C178.448 25.8854 176.875 25.1875 174.875 25.1875C172.792 25.1875 171.135 25.9167 169.906 27.375C168.698 28.8125 168.094 30.7708 168.094 33.25V49H159.125V17.75H166.375L166.688 22.75C167.812 20.9167 169.281 19.5208 171.094 18.5625C172.906 17.6042 175.042 17.125 177.5 17.125C181.479 17.125 184.604 18.3542 186.875 20.8125C189.167 23.25 190.312 26.625 190.312 30.9375V49ZM219.688 49H211.812V2.125H220.781V21.3125C222.094 20 223.615 18.9792 225.344 18.25C227.094 17.5 228.99 17.125 231.031 17.125C233.906 17.125 236.458 17.8333 238.688 19.25C240.917 20.6458 242.677 22.5729 243.969 25.0312C245.26 27.4688 245.906 30.25 245.906 33.375C245.906 36.4792 245.26 39.2604 243.969 41.7188C242.677 44.1771 240.917 46.1146 238.688 47.5312C236.458 48.9271 233.906 49.625 231.031 49.625C228.823 49.625 226.781 49.1979 224.906 48.3438C223.052 47.4688 221.458 46.2708 220.125 44.75L219.688 49ZM228.75 41.5938C230.271 41.5938 231.625 41.2396 232.812 40.5312C234.021 39.8229 234.969 38.8438 235.656 37.5938C236.365 36.3438 236.719 34.9271 236.719 33.3438C236.719 31.7812 236.365 30.3854 235.656 29.1562C234.969 27.9062 234.021 26.9271 232.812 26.2188C231.625 25.5104 230.271 25.1562 228.75 25.1562C227.312 25.1562 226 25.4792 224.812 26.125C223.646 26.7708 222.708 27.6562 222 28.7812C221.292 29.9062 220.885 31.1979 220.781 32.6562V34.0312C220.885 35.4896 221.292 36.7917 222 37.9375C222.708 39.0625 223.646 39.9583 224.812 40.625C225.979 41.2708 227.292 41.5938 228.75 41.5938ZM261.219 49H251.625V0.875H261.219V49ZM283.719 49.625C280.51 49.625 277.635 48.9271 275.094 47.5312C272.552 46.1146 270.552 44.1875 269.094 41.75C267.656 39.2917 266.938 36.5 266.938 33.375C266.938 30.2708 267.656 27.5 269.094 25.0625C270.552 22.6042 272.552 20.6667 275.094 19.25C277.635 17.8333 280.51 17.125 283.719 17.125C286.927 17.125 289.781 17.8333 292.281 19.25C294.802 20.6667 296.781 22.6042 298.219 25.0625C299.677 27.5 300.406 30.2708 300.406 33.375C300.406 36.5 299.677 39.2917 298.219 41.75C296.781 44.1875 294.802 46.1146 292.281 47.5312C289.781 48.9271 286.927 49.625 283.719 49.625ZM283.688 41.5938C285.125 41.5938 286.406 41.2396 287.531 40.5312C288.677 39.8021 289.573 38.8229 290.219 37.5938C290.885 36.3438 291.219 34.9167 291.219 33.3125C291.219 31.7708 290.885 30.3854 290.219 29.1562C289.573 27.9271 288.677 26.9583 287.531 26.25C286.406 25.5208 285.125 25.1562 283.688 25.1562C282.229 25.1562 280.927 25.5208 279.781 26.25C278.656 26.9583 277.76 27.9271 277.094 29.1562C276.448 30.3854 276.125 31.7708 276.125 33.3125C276.125 34.9167 276.448 36.3438 277.094 37.5938C277.76 38.8229 278.656 39.8021 279.781 40.5312C280.927 41.2396 282.229 41.5938 283.688 41.5938ZM318.906 49.375C316.094 49.375 313.573 48.6771 311.344 47.2812C309.115 45.8646 307.365 43.9479 306.094 41.5312C304.823 39.0938 304.188 36.3333 304.188 33.25C304.188 30.1458 304.823 27.3854 306.094 24.9688C307.365 22.5521 309.115 20.6458 311.344 19.25C313.573 17.8333 316.104 17.125 318.938 17.125C321.146 17.125 323.167 17.5625 325 18.4375C326.854 19.2917 328.448 20.4792 329.781 22L330.188 17.75H338.062V48.125C338.062 51.5833 337.302 54.5938 335.781 57.1562C334.281 59.7396 332.156 61.7292 329.406 63.125C326.656 64.5417 323.438 65.25 319.75 65.25C314.625 65.25 309.979 63.6458 305.812 60.4375L309.438 53.125C312.208 55.8542 315.438 57.2188 319.125 57.2188C321.104 57.2188 322.833 56.8229 324.312 56.0312C325.812 55.2396 326.979 54.1354 327.812 52.7188C328.667 51.3021 329.094 49.6562 329.094 47.7812V45.2188C327.802 46.5104 326.292 47.5312 324.562 48.2812C322.833 49.0104 320.948 49.375 318.906 49.375ZM321.219 41.375C322.677 41.375 324 41.0625 325.188 40.4375C326.375 39.7917 327.323 38.9062 328.031 37.7812C328.74 36.6354 329.094 35.3438 329.094 33.9062V32.5625C329.094 31.125 328.729 29.8438 328 28.7188C327.292 27.5938 326.344 26.7188 325.156 26.0938C323.99 25.4479 322.677 25.125 321.219 25.125C319.719 25.125 318.375 25.4792 317.188 26.1875C316 26.8958 315.062 27.8646 314.375 29.0938C313.688 30.3021 313.344 31.6875 313.344 33.25C313.344 34.8125 313.688 36.2083 314.375 37.4375C315.062 38.6667 316 39.6354 317.188 40.3438C318.375 41.0312 319.719 41.375 321.219 41.375Z" fill="black"/>
</svg>
