<svg width="712" height="274" viewBox="0 0 712 274" fill="none" xmlns="http://www.w3.org/2000/svg">
<path d="M0.148438 177V-1.00136e-05H9.14844V177H0.148438ZM18.1484 177V-1.00136e-05H45.1484V177H18.1484ZM54.1484 177V-1.00136e-05H63.1484V177H54.1484ZM72.1484 177V-1.00136e-05H99.1484V177H72.1484ZM126.148 177V-1.00136e-05H135.148V177H126.148ZM71.8484 273.9C62.8484 273.9 55.5484 270.9 49.9484 264.9L54.1484 258L54.4484 257.1L55.3484 257.4C55.3484 257.6 55.4484 258 55.6484 258.6C55.6484 259 55.8484 259.5 56.2484 260.1C56.4484 260.5 56.8484 260.9 57.4484 261.3C61.6484 264.9 66.8484 266.7 73.0484 266.7C77.0484 266.7 80.4484 265.6 83.2484 263.4C86.0484 261 87.4484 258.2 87.4484 255C87.4484 252.8 86.9484 250.9 85.9484 249.3C85.1484 247.9 83.6484 246.5 81.4484 245.1C79.2484 243.7 75.8484 242 71.2484 240C64.4484 237.4 59.5484 234.4 56.5484 231C53.7484 227.6 52.3484 223.8 52.3484 219.6C52.3484 214.4 54.2484 210.2 58.0484 207C61.8484 203.8 66.9484 202.2 73.3484 202.2C77.1484 202.2 80.7484 203 84.1484 204.6C87.3484 206.2 90.2484 208.3 92.8484 210.9L87.7484 217.8L87.1484 217.2C87.1484 217 87.0484 216.7 86.8484 216.3C86.8484 215.7 86.6484 215.2 86.2484 214.8C86.0484 214.2 85.6484 213.7 85.0484 213.3C83.4484 211.7 81.5484 210.5 79.3484 209.7C77.3484 209.1 74.9484 208.8 72.1484 208.8C68.5484 208.8 65.7484 209.8 63.7484 211.8C61.5484 213.8 60.4484 216.2 60.4484 219C60.4484 221.2 60.8484 223.1 61.6484 224.7C62.6484 226.3 64.3484 227.8 66.7484 229.2C69.1484 230.8 72.7484 232.5 77.5484 234.3C84.1484 237.1 88.7484 239.9 91.3484 242.7C93.7484 245.7 94.9484 249.4 94.9484 253.8C94.9484 257.2 94.1484 260.4 92.5484 263.4C90.7484 266.4 88.1484 268.9 84.7484 270.9C81.1484 272.9 76.8484 273.9 71.8484 273.9ZM144.289 177V-1.00136e-05H171.289V177H144.289ZM180.289 177V-1.00136e-05H189.289V177H180.289ZM198.289 177V-1.00136e-05H225.289V177H198.289ZM252.289 177V-1.00136e-05H261.289V177H252.289ZM270.289 177V-1.00136e-05H279.289V177H270.289ZM194.989 203.1H237.589V210H202.189V232.8H231.589V240H202.189V265.8H237.289V272.7H194.989V203.1ZM288.43 177V-1.00136e-05H297.43V177H288.43ZM324.43 177V-1.00136e-05H351.43V177H324.43ZM360.43 177V-1.00136e-05H369.43V177H360.43ZM378.43 177V-1.00136e-05H387.43V177H378.43ZM396.43 177V-1.00136e-05H423.43V177H396.43ZM335.23 203.1H343.33L361.33 256.5L378.13 203.1H385.93L362.53 273H358.93L335.23 203.1ZM432.57 177V-1.00136e-05H459.57V177H432.57ZM468.57 177V-1.00136e-05H477.57V177H468.57ZM486.57 177V-1.00136e-05H513.57V177H486.57ZM540.57 177V-1.00136e-05H549.57V177H540.57ZM558.57 177V-1.00136e-05H567.57V177H558.57ZM483.27 203.1H525.87V210H490.47V232.8H519.87V240H490.47V265.8H525.57V272.7H483.27V203.1ZM576.711 177V-1.00136e-05H585.711V177H576.711ZM594.711 177V-1.00136e-05H603.711V177H594.711ZM612.711 177V-1.00136e-05H639.711V177H612.711ZM648.711 177V-1.00136e-05H657.711V177H648.711ZM684.711 177V-1.00136e-05H711.711V177H684.711ZM626.511 203.1H634.011L663.111 254.7V203.1H671.811V204C671.211 204.4 670.911 204.9 670.911 205.5C670.711 205.9 670.611 206.8 670.611 208.2V272.7H664.611L633.711 218.1V272.7H626.511V203.1Z" fill="white"/>
</svg>
