<svg width="24" height="26" viewBox="0 0 24 26" fill="none" xmlns="http://www.w3.org/2000/svg">
<path d="M10 16.25L15.19 13L10 9.74996V16.25ZM21.56 7.76746C21.69 8.27663 21.78 8.95913 21.84 9.82579C21.91 10.6925 21.94 11.44 21.94 12.09L22 13C22 15.3725 21.84 17.1166 21.56 18.2325C21.31 19.2075 20.73 19.8358 19.83 20.1066C19.36 20.2475 18.5 20.345 17.18 20.41C15.88 20.4858 14.69 20.5183 13.59 20.5183L12 20.5833C7.81 20.5833 5.2 20.41 4.17 20.1066C3.27 19.8358 2.69 19.2075 2.44 18.2325C2.31 17.7233 2.22 17.0408 2.16 16.1741C2.09 15.3075 2.06 14.56 2.06 13.91L2 13C2 10.6275 2.16 8.88329 2.44 7.76746C2.69 6.79246 3.27 6.16413 4.17 5.89329C4.64 5.75246 5.5 5.65496 6.82 5.58996C8.12 5.51413 9.31 5.48163 10.41 5.48163L12 5.41663C16.19 5.41663 18.8 5.58996 19.83 5.89329C20.73 6.16413 21.31 6.79246 21.56 7.76746Z" fill="#C4302B"/>
</svg>
