<svg width="259" height="59" viewBox="0 0 259 59" fill="none" xmlns="http://www.w3.org/2000/svg">
<path d="M18.25 58.0312C14.0417 58.0312 10.8542 57.2083 8.6875 55.5625C6.52083 53.9375 5.4375 51.5312 5.4375 48.3438V38C5.4375 36.2083 4.9375 34.6667 3.9375 33.375C2.95833 32.0625 1.75 31.3542 0.3125 31.25V27.6562C1.75 27.5521 2.95833 26.8542 3.9375 25.5625C4.9375 24.25 5.4375 22.6979 5.4375 20.9062V10.5625C5.4375 7.35417 6.52083 4.9375 8.6875 3.3125C10.8542 1.6875 14.0417 0.875 18.25 0.875V8C16.5 8 15.2292 8.35417 14.4375 9.0625C13.6458 9.75 13.25 10.8958 13.25 12.5V21.1562C13.25 23.0312 12.7917 24.6979 11.875 26.1562C10.9583 27.6146 9.70833 28.7083 8.125 29.4375C9.70833 30.1667 10.9583 31.2708 11.875 32.75C12.7917 34.2292 13.25 35.9062 13.25 37.7812V46.4062C13.25 47.9896 13.6458 49.1354 14.4375 49.8438C15.2292 50.5521 16.5 50.9062 18.25 50.9062V58.0312ZM240.188 58.0312V50.9062C241.958 50.9062 243.229 50.5417 244 49.8125C244.792 49.1042 245.188 47.9688 245.188 46.4062V37.7812C245.188 35.9062 245.646 34.2292 246.562 32.75C247.479 31.2708 248.729 30.1667 250.312 29.4375C248.729 28.7083 247.479 27.6146 246.562 26.1562C245.646 24.6771 245.188 23.0104 245.188 21.1562V12.5C245.188 10.8958 244.792 9.73958 244 9.03125C243.229 8.32292 241.958 7.96875 240.188 7.96875V0.875C244.417 0.875 247.604 1.6875 249.75 3.3125C251.917 4.9375 253 7.35417 253 10.5625V20.9062C253 22.6979 253.49 24.25 254.469 25.5625C255.469 26.8542 256.688 27.5521 258.125 27.6562V31.25C256.688 31.3542 255.469 32.0625 254.469 33.375C253.49 34.6667 253 36.2083 253 38V48.3438C253 51.5312 251.917 53.9375 249.75 55.5625C247.604 57.2083 244.417 58.0312 240.188 58.0312Z" fill="#32BBF6"/>
<path d="M51.25 49H43.4375L42.9688 45.2812C41.8229 46.6562 40.4062 47.7292 38.7188 48.5C37.0312 49.25 35.1771 49.625 33.1562 49.625C30.9688 49.625 29.0208 49.2083 27.3125 48.375C25.6042 47.5208 24.2604 46.3542 23.2812 44.875C22.3021 43.375 21.8125 41.6771 21.8125 39.7812C21.8125 37.7812 22.3438 36.0208 23.4062 34.5C24.4688 32.9792 25.9271 31.7917 27.7812 30.9375C29.6562 30.0625 31.7812 29.625 34.1562 29.625C35.5521 29.625 36.9479 29.7812 38.3438 30.0938C39.7604 30.4062 41.0729 30.8438 42.2812 31.4062V30.5938C42.2812 29.3438 41.9271 28.2708 41.2188 27.375C40.5312 26.4583 39.5729 25.75 38.3438 25.25C37.1354 24.75 35.7812 24.5 34.2812 24.5C32.8438 24.5 31.4167 24.7292 30 25.1875C28.6042 25.6458 27.3125 26.3333 26.125 27.25L23.6875 20.4062C25.7917 19.3229 27.9167 18.5104 30.0625 17.9688C32.2292 17.4062 34.3229 17.125 36.3438 17.125C39.3854 17.125 42.0208 17.7292 44.25 18.9375C46.4792 20.125 48.1979 21.8125 49.4062 24C50.6354 26.1667 51.25 28.7396 51.25 31.7188V49ZM35.125 42.7188C36.3125 42.7188 37.4479 42.4583 38.5312 41.9375C39.6146 41.4167 40.4896 40.7083 41.1562 39.8125C41.8438 38.9167 42.2083 37.9271 42.25 36.8438V36.625C41.3333 36 40.3125 35.5208 39.1875 35.1875C38.0833 34.8333 36.9583 34.6562 35.8125 34.6562C34.1042 34.6562 32.7083 35.0312 31.625 35.7812C30.5417 36.5312 30 37.5 30 38.6875C30 39.4583 30.2188 40.1562 30.6562 40.7812C31.1146 41.3854 31.7292 41.8646 32.5 42.2188C33.2708 42.5521 34.1458 42.7188 35.125 42.7188ZM67.2188 49H58.25V17.75H66.0625L66.375 23.1562C67.4167 21.2604 68.8333 19.7812 70.625 18.7188C72.4167 17.6562 74.4688 17.125 76.7812 17.125C77.4479 17.125 78.1146 17.1771 78.7812 17.2812C79.4688 17.3646 80.1667 17.5 80.875 17.6875L79.75 25.75C78.375 25.3542 77.0729 25.1562 75.8438 25.1562C74.1146 25.1562 72.5938 25.5521 71.2812 26.3438C69.9896 27.1146 68.9896 28.1979 68.2812 29.5938C67.5729 30.9688 67.2188 32.5833 67.2188 34.4375V49ZM106.844 48.1875C104.448 49.1458 102.125 49.625 99.875 49.625C97.5417 49.625 95.4792 49.1354 93.6875 48.1562C91.9167 47.1562 90.5312 45.7708 89.5312 44C88.5312 42.2083 88.0312 40.1458 88.0312 37.8125V25.75H82.5625V17.75H88.5V9.9375H97V17.75H105.656V25.75H97V36.1875C97 37.8958 97.4688 39.2292 98.4062 40.1875C99.3438 41.125 100.51 41.5938 101.906 41.5938C103.177 41.5938 104.417 41.1979 105.625 40.4062L106.844 48.1875ZM115.656 10.2812C114.469 10.2812 113.469 9.86458 112.656 9.03125C111.844 8.19792 111.438 7.1875 111.438 6C111.438 4.8125 111.844 3.8125 112.656 3C113.469 2.16667 114.469 1.75 115.656 1.75C116.865 1.75 117.875 2.16667 118.688 3C119.521 3.8125 119.938 4.8125 119.938 6C119.938 7.1875 119.521 8.19792 118.688 9.03125C117.875 9.86458 116.865 10.2812 115.656 10.2812ZM120.156 49H111.188V17.75H120.156V49ZM155.562 44.0312C154.042 45.7812 152.177 47.1562 149.969 48.1562C147.76 49.1354 145.333 49.625 142.688 49.625C139.479 49.625 136.604 48.9271 134.062 47.5312C131.542 46.1146 129.552 44.1771 128.094 41.7188C126.656 39.2604 125.938 36.4792 125.938 33.375C125.938 30.25 126.656 27.4688 128.094 25.0312C129.552 22.5729 131.542 20.6458 134.062 19.25C136.604 17.8333 139.479 17.125 142.688 17.125C145.312 17.125 147.729 17.6146 149.938 18.5938C152.146 19.5729 154.01 20.9271 155.531 22.6562L150.25 28.1875C149.438 27.25 148.406 26.5208 147.156 26C145.927 25.4583 144.635 25.1875 143.281 25.1875C141.719 25.1875 140.323 25.5417 139.094 26.25C137.865 26.9375 136.896 27.8958 136.188 29.125C135.479 30.3333 135.125 31.7292 135.125 33.3125C135.125 34.9167 135.479 36.3438 136.188 37.5938C136.896 38.8438 137.865 39.8229 139.094 40.5312C140.323 41.2188 141.719 41.5625 143.281 41.5625C144.635 41.5625 145.938 41.3021 147.188 40.7812C148.438 40.2396 149.458 39.5 150.25 38.5625L155.562 44.0312ZM170.656 49H161.062V0.875H170.656V49ZM207.094 45.5C203.219 48.25 198.979 49.625 194.375 49.625C190.958 49.625 187.885 48.8958 185.156 47.4375C182.448 45.9583 180.302 43.9583 178.719 41.4375C177.156 38.9167 176.375 36.0729 176.375 32.9062C176.375 29.8854 177.083 27.1875 178.5 24.8125C179.938 22.4375 181.885 20.5625 184.344 19.1875C186.802 17.8125 189.594 17.125 192.719 17.125C195.948 17.125 198.792 17.8854 201.25 19.4062C203.708 20.9062 205.625 23.0104 207 25.7188C208.375 28.4062 209.062 31.5208 209.062 35.0625V36.0625H186.031C186.406 37.2917 187.021 38.375 187.875 39.3125C188.729 40.2292 189.792 40.9583 191.062 41.5C192.333 42.0417 193.792 42.3125 195.438 42.3125C198.625 42.3125 201.594 41.2812 204.344 39.2188L207.094 45.5ZM185.625 31.5H200.781C200.615 30.1458 200.188 28.9583 199.5 27.9375C198.833 26.8958 197.948 26.0833 196.844 25.5C195.76 24.9167 194.542 24.625 193.188 24.625C191.812 24.625 190.583 24.9271 189.5 25.5312C188.438 26.1354 187.573 26.9479 186.906 27.9688C186.24 28.9896 185.812 30.1667 185.625 31.5ZM212.562 46.3125L214.531 38.6875C215.156 39.375 215.99 40.0104 217.031 40.5938C218.094 41.1771 219.229 41.6458 220.438 42C221.667 42.3333 222.823 42.5 223.906 42.5C225.198 42.5 226.208 42.2604 226.938 41.7812C227.667 41.2812 228.031 40.6146 228.031 39.7812C228.031 39.0938 227.781 38.5208 227.281 38.0625C226.802 37.5833 226.146 37.1667 225.312 36.8125C224.5 36.4375 223.594 36.0729 222.594 35.7188C221.24 35.1979 219.844 34.5938 218.406 33.9062C216.99 33.2188 215.792 32.2812 214.812 31.0938C213.833 29.9062 213.344 28.3333 213.344 26.375C213.344 24.5 213.833 22.875 214.812 21.5C215.792 20.1042 217.177 19.0312 218.969 18.2812C220.76 17.5104 222.844 17.125 225.219 17.125C229.073 17.125 232.917 18.0938 236.75 20.0312L234.219 27.125C233.552 26.6042 232.719 26.125 231.719 25.6875C230.719 25.2292 229.688 24.8646 228.625 24.5938C227.583 24.3229 226.646 24.1875 225.812 24.1875C224.792 24.1875 223.99 24.3958 223.406 24.8125C222.844 25.2292 222.562 25.8021 222.562 26.5312C222.562 27.0729 222.76 27.5625 223.156 28C223.552 28.4167 224.135 28.8229 224.906 29.2188C225.698 29.5938 226.667 30 227.812 30.4375C229.229 30.9583 230.656 31.5833 232.094 32.3125C233.552 33.0208 234.771 33.9792 235.75 35.1875C236.75 36.375 237.25 37.9583 237.25 39.9375C237.25 41.875 236.719 43.5729 235.656 45.0312C234.615 46.4896 233.135 47.625 231.219 48.4375C229.323 49.2292 227.094 49.625 224.531 49.625C220.26 49.625 216.271 48.5208 212.562 46.3125Z" fill="black"/>
</svg>
